<svg width="43" height="62" viewBox="0 0 43 62" fill="none" xmlns="http://www.w3.org/2000/svg">
<path d="M6.14286 0H36.8571C38.4863 0 40.0488 0.653212 41.2008 1.81594C42.3528 2.97866 43 4.55566 43 6.2V55.8C43 57.4443 42.3528 59.0213 41.2008 60.1841C40.0488 61.3468 38.4863 62 36.8571 62H6.14286C4.51367 62 2.95121 61.3468 1.7992 60.1841C0.647192 59.0213 0 57.4443 0 55.8V6.2C0 4.55566 0.647192 2.97866 1.7992 1.81594C2.95121 0.653212 4.51367 0 6.14286 0ZM6.14286 6.2V18.6H36.8571V6.2H6.14286ZM6.14286 24.8V31H12.2857V24.8H6.14286ZM18.4286 24.8V31H24.5714V24.8H18.4286ZM30.7143 24.8V31H36.8571V24.8H30.7143ZM6.14286 37.2V43.4H12.2857V37.2H6.14286ZM18.4286 37.2V43.4H24.5714V37.2H18.4286ZM30.7143 37.2V43.4H36.8571V37.2H30.7143ZM6.14286 49.6V55.8H12.2857V49.6H6.14286ZM18.4286 49.6V55.8H24.5714V49.6H18.4286ZM30.7143 49.6V55.8H36.8571V49.6H30.7143Z" fill="white"/>
</svg>
