<svg width="64" height="62" viewBox="0 0 64 62" fill="none" xmlns="http://www.w3.org/2000/svg">
<g clip-path="url(#clip0_200_102)">
<path d="M32 5.58242C40.55 5.58242 41.5625 5.61875 44.925 5.76406C48.05 5.89726 49.7375 6.40586 50.8625 6.82969C52.35 7.38672 53.425 8.06484 54.5375 9.14258C55.6625 10.2324 56.35 11.2617 56.925 12.7027C57.3625 13.7926 57.8875 15.4395 58.025 18.4547C58.175 21.7242 58.2125 22.7051 58.2125 30.9758C58.2125 39.2586 58.175 40.2395 58.025 43.4969C57.8875 46.5242 57.3625 48.159 56.925 49.2488C56.35 50.6898 55.65 51.7313 54.5375 52.809C53.4125 53.8988 52.35 54.5648 50.8625 55.1219C49.7375 55.5457 48.0375 56.0543 44.925 56.1875C41.55 56.3328 40.5375 56.3691 32 56.3691C23.45 56.3691 22.4375 56.3328 19.075 56.1875C15.95 56.0543 14.2625 55.5457 13.1375 55.1219C11.65 54.5648 10.575 53.8867 9.4625 52.809C8.3375 51.7191 7.65 50.6898 7.075 49.2488C6.6375 48.159 6.1125 46.5121 5.975 43.4969C5.825 40.2273 5.7875 39.2465 5.7875 30.9758C5.7875 22.693 5.825 21.7121 5.975 18.4547C6.1125 15.4273 6.6375 13.7926 7.075 12.7027C7.65 11.2617 8.35 10.2203 9.4625 9.14258C10.5875 8.05273 11.65 7.38672 13.1375 6.82969C14.2625 6.40586 15.9625 5.89726 19.075 5.76406C22.4375 5.61875 23.45 5.58242 32 5.58242ZM32 0C23.3125 0 22.225 0.0363281 18.8125 0.181641C15.4125 0.326953 13.075 0.859765 11.05 1.62266C8.9375 2.42187 7.15 3.47539 5.375 5.20703C3.5875 6.92656 2.5 8.6582 1.675 10.6926C0.8875 12.6664 0.3375 14.9187 0.1875 18.2125C0.0375 21.5305 0 22.584 0 31C0 39.416 0.0375 40.4695 0.1875 43.7754C0.3375 47.0691 0.8875 49.3336 1.675 51.2953C2.5 53.3418 3.5875 55.0734 5.375 56.793C7.15 58.5125 8.9375 59.5781 11.0375 60.3652C13.075 61.1281 15.4 61.6609 18.8 61.8062C22.2125 61.9516 23.3 61.9879 31.9875 61.9879C40.675 61.9879 41.7625 61.9516 45.175 61.8062C48.575 61.6609 50.9125 61.1281 52.9375 60.3652C55.0375 59.5781 56.825 58.5125 58.6 56.793C60.375 55.0734 61.475 53.3418 62.2875 51.3074C63.075 49.3336 63.625 47.0813 63.775 43.7875C63.925 40.4816 63.9625 39.4281 63.9625 31.0121C63.9625 22.5961 63.925 21.5426 63.775 18.2367C63.625 14.943 63.075 12.6785 62.2875 10.7168C61.5 8.6582 60.4125 6.92656 58.625 5.20703C56.85 3.4875 55.0625 2.42187 52.9625 1.63477C50.925 0.871875 48.6 0.339063 45.2 0.19375C41.775 0.0363281 40.6875 0 32 0Z" fill="#F8B133"/>
<path d="M32 15.0762C22.925 15.0762 15.5625 22.2086 15.5625 31C15.5625 39.7914 22.925 46.9238 32 46.9238C41.075 46.9238 48.4375 39.7914 48.4375 31C48.4375 22.2086 41.075 15.0762 32 15.0762ZM32 41.3293C26.1125 41.3293 21.3375 36.7035 21.3375 31C21.3375 25.2965 26.1125 20.6707 32 20.6707C37.8875 20.6707 42.6625 25.2965 42.6625 31C42.6625 36.7035 37.8875 41.3293 32 41.3293Z" fill="#F8B133"/>
<path d="M52.925 14.4463C52.925 16.5049 51.2 18.1639 49.0875 18.1639C46.9625 18.1639 45.25 16.4928 45.25 14.4463C45.25 12.3877 46.975 10.7288 49.0875 10.7288C51.2 10.7288 52.925 12.3999 52.925 14.4463Z" fill="#F8B133"/>
</g>
<defs>
<clipPath id="clip0_200_102">
<rect width="64" height="62" fill="white"/>
</clipPath>
</defs>
</svg>
