<svg width="81" height="81" viewBox="0 0 81 81" fill="none" xmlns="http://www.w3.org/2000/svg">
<circle cx="40.1089" cy="40.1089" r="40.1089" fill="#F8B133"/>
<g clip-path="url(#clip0_202_175)">
<path d="M18.2369 31.4957C20.6063 31.4957 21.8554 32.5838 21.984 34.7599C22.006 35.4714 22.5709 35.8271 23.6819 35.8271C24.3001 35.8271 24.7395 35.7105 24.9937 35.4773C25.2479 35.2442 25.3765 34.8018 25.3765 34.1501C25.3765 32.524 24.7081 31.1968 23.3743 30.1715C22.0405 29.1462 20.2862 28.6321 18.1082 28.6321C15.9303 28.6321 14.2827 29.1821 12.9709 30.2791C11.6559 31.3732 11 33.092 11 35.4295V44.3044C11 46.642 11.6496 48.3608 12.952 49.4578C14.2544 50.5548 15.9616 51.1048 18.0737 51.1048C20.1858 51.1048 22.0123 50.5757 23.3555 49.5206C24.7018 48.4624 25.3734 47.0903 25.3734 45.4044C25.3734 44.7528 25.2416 44.3134 24.9748 44.0772C24.7081 43.8441 24.2656 43.7275 23.6473 43.7275C22.6023 43.7275 22.0468 44.0832 21.9809 44.7946C21.937 45.243 21.8742 45.6167 21.7895 45.9216C21.7047 46.2265 21.551 46.5822 21.325 46.9887C21.1022 47.3952 20.7319 47.7061 20.2203 47.9184C19.7088 48.1306 19.0686 48.2382 18.2997 48.2382C15.6949 48.2382 14.3925 46.9259 14.3925 44.3044V35.4295C14.3925 32.808 15.6729 31.4957 18.2338 31.4957H18.2369Z" fill="black"/>
<path d="M39.7532 40.0269C39.1443 39.5456 38.4727 39.1212 37.7352 38.7535C36.9977 38.3858 36.2571 38.063 35.5102 37.788C34.7633 37.513 34.0854 37.232 33.4766 36.945C32.8677 36.6581 32.3719 36.2964 31.989 35.857C31.6061 35.4175 31.4116 34.8914 31.4116 34.2787C31.4116 33.3401 31.7756 32.6376 32.5006 32.1773C33.2255 31.7169 34.1984 31.4868 35.4129 31.4868C36.2037 31.4868 36.9004 31.5854 37.5093 31.7767C38.1181 31.971 38.6014 32.1653 38.9654 32.3596C39.3295 32.5539 39.6151 32.6496 39.8285 32.6496C40.2553 32.6496 40.5974 32.4553 40.8547 32.0667C41.112 31.6781 41.2376 31.2925 41.2376 30.9128C41.2376 30.5332 41.0336 30.1894 40.6287 29.8875C40.2239 29.5856 39.7092 29.3555 39.091 29.194C38.4727 29.0326 37.8482 28.919 37.2174 28.8473C36.5866 28.7756 35.9841 28.7427 35.4098 28.7427C34.4934 28.7427 33.6209 28.8383 32.8018 29.0326C31.9796 29.2239 31.195 29.5348 30.4481 29.9593C29.7012 30.3867 29.1081 30.9935 28.6718 31.7857C28.2356 32.5778 28.0159 33.5104 28.0159 34.5836C28.0159 35.9317 28.3737 37.0556 29.0892 37.9554C29.8048 38.8551 30.6741 39.5307 31.6971 39.979C32.7202 40.4304 33.7402 40.8489 34.7538 41.2375C35.7675 41.6261 36.6305 42.1462 37.3461 42.8008C38.0616 43.4555 38.4194 44.2715 38.4194 45.252C38.4194 46.3161 38.0522 47.1232 37.3147 47.6732C36.5772 48.2262 35.6012 48.5012 34.3867 48.5012C33.5738 48.5012 32.8458 48.3727 32.193 48.1097C31.5402 47.8496 31.0569 47.5686 30.7368 47.2667C30.4167 46.9648 30.0903 46.6838 29.7608 46.4238C29.4282 46.1637 29.1457 46.0322 28.9135 46.0322C28.5306 46.0322 28.1885 46.2265 27.8873 46.6121C27.5891 46.9977 27.4385 47.3863 27.4385 47.7719C27.4385 48.6059 28.1258 49.4129 29.5035 50.1961C30.8812 50.9793 32.5508 51.3709 34.5153 51.3709C36.7121 51.3709 38.479 50.8209 39.8128 49.7208C41.1466 48.6208 41.815 47.0186 41.815 44.9172C41.815 43.8142 41.6236 42.8427 41.2376 42.0057C40.8547 41.1688 40.3588 40.5081 39.75 40.0269H39.7532Z" fill="black"/>
<path d="M69.4164 27H45.2986C44.9753 27 44.7148 27.2361 44.7148 27.5291V52.4709C44.7148 52.7639 44.9753 53 45.2986 53H69.4164C69.7396 53 70.0001 52.7639 70.0001 52.4709V27.5291C70.0001 27.2361 69.7396 27 69.4164 27ZM66.8618 35.8719L62.4556 49.6192C62.327 49.9809 62.0665 50.2529 61.6773 50.4383C61.3321 50.6027 60.9524 50.6894 60.5476 50.6894C60.1427 50.6894 59.7661 50.6086 59.4209 50.4472C58.9156 50.2111 58.7368 49.8613 58.674 49.6132L57.3842 44.7767L56.1069 49.6073C56.0504 49.8494 55.8715 50.2021 55.3725 50.4413C55.0304 50.6057 54.6444 50.6894 54.2239 50.6894C53.8034 50.6894 53.4205 50.6057 53.0784 50.4442C52.6861 50.2589 52.4319 49.9839 52.3221 49.6312L47.8908 35.8839C47.8626 35.8062 47.85 35.7015 47.85 35.5521C47.85 35.2711 47.9693 34.8705 48.5279 34.5507C48.9076 34.3355 49.3187 34.2279 49.7518 34.2279C50.64 34.2279 50.9098 34.7091 50.9914 34.9961L54.2019 45.6197L55.8181 39.5008C55.8997 39.1451 56.2167 38.5323 57.3904 38.5323C58.5642 38.5323 58.8466 39.1481 58.9407 39.5158L60.5727 45.6346L63.7737 34.9782C63.8553 34.7002 64.1252 34.2249 65.0071 34.2249C65.437 34.2249 65.8481 34.3325 66.2247 34.5447C66.7834 34.8586 66.9026 35.2591 66.9026 35.5371C66.9026 35.6806 66.8901 35.7852 66.8618 35.8689V35.8719ZM67.4644 30.9158C67.4644 31.4838 66.9999 31.9441 66.4287 31.9441H48.1607C47.5895 31.9441 47.1251 31.4838 47.1251 30.9158V30.3389C47.1251 29.771 47.5895 29.3106 48.1607 29.3106H66.4287C66.9999 29.3106 67.4644 29.771 67.4644 30.3389V30.9158Z" fill="black"/>
</g>
<defs>
<clipPath id="clip0_202_175">
<rect width="59" height="26" fill="white" transform="translate(11 27)"/>
</clipPath>
</defs>
</svg>
