<svg width="88" height="39" viewBox="0 0 88 39" fill="none" xmlns="http://www.w3.org/2000/svg">
<g clip-path="url(#clip0_174_298)">
<path d="M10.794 6.74359C14.3281 6.74359 16.1911 8.37569 16.383 11.6399C16.4157 12.707 17.2583 13.2406 18.9153 13.2406C19.8374 13.2406 20.4928 13.0657 20.8719 12.716C21.2511 12.3663 21.443 11.7027 21.443 10.7252C21.443 8.28601 20.446 6.29521 18.4566 4.75727C16.4672 3.21933 13.8506 2.44812 10.6021 2.44812C7.35362 2.44812 4.89617 3.27314 2.93957 4.91869C0.978298 6.55976 0 9.13793 0 12.6443V25.9566C0 29.463 0.968936 32.0411 2.91149 33.6867C4.85404 35.3322 7.40043 36.1572 10.5506 36.1572C13.7009 36.1572 16.4251 35.3636 18.4285 33.7808C20.4366 32.1936 21.4383 30.1355 21.4383 27.6067C21.4383 26.6292 21.2417 25.9701 20.8438 25.6159C20.446 25.2661 19.786 25.0913 18.8638 25.0913C17.3051 25.0913 16.4766 25.6248 16.3783 26.692C16.3128 27.3645 16.2191 27.925 16.0928 28.3824C15.9664 28.8397 15.737 29.3733 15.4 29.9831C15.0677 30.5929 14.5153 31.0592 13.7523 31.3775C12.9894 31.6959 12.0345 31.8573 10.8877 31.8573C7.00255 31.8573 5.06 29.8889 5.06 25.9566V12.6443C5.06 8.71197 6.96979 6.74359 10.7894 6.74359H10.794Z" fill="white"/>
<path d="M42.8862 19.5403C41.9781 18.8184 40.9764 18.1817 39.8764 17.6302C38.7764 17.0787 37.6717 16.5945 36.5577 16.182C35.4437 15.7695 34.4326 15.348 33.5245 14.9175C32.6164 14.4871 31.8769 13.9445 31.3058 13.2854C30.7347 12.6263 30.4445 11.8372 30.4445 10.918C30.4445 9.51008 30.9875 8.45639 32.0688 7.76589C33.15 7.07538 34.6011 6.73013 36.4126 6.73013C37.5922 6.73013 38.6313 6.8781 39.5394 7.16506C40.4475 7.45651 41.1683 7.74795 41.7113 8.0394C42.2543 8.33084 42.6803 8.47433 42.9986 8.47433C43.6351 8.47433 44.1454 8.18288 44.5292 7.59999C44.913 7.01709 45.1003 6.43869 45.1003 5.86924C45.1003 5.2998 44.796 4.78417 44.1922 4.3313C43.5883 3.87844 42.8207 3.53319 41.8986 3.29107C40.9764 3.04894 40.0449 2.87856 39.1041 2.77095C38.1632 2.66334 37.2645 2.61401 36.4079 2.61401C35.0411 2.61401 33.7398 2.7575 32.5181 3.04894C31.2917 3.3359 30.1215 3.80222 29.0075 4.43892C27.8934 5.0801 27.0088 5.99031 26.3581 7.17851C25.7075 8.36672 25.3798 9.76566 25.3798 11.3753C25.3798 13.3975 25.9134 15.0834 26.9807 16.4331C28.0479 17.7827 29.3445 18.796 30.8705 19.4686C32.3964 20.1456 33.9177 20.7734 35.4296 21.3563C36.9415 21.9391 38.2288 22.7193 39.296 23.7013C40.3632 24.6832 40.8969 25.9073 40.8969 27.378C40.8969 28.9742 40.3492 30.1848 39.2492 31.0098C38.1492 31.8394 36.6934 32.2519 34.882 32.2519C33.6696 32.2519 32.5837 32.0591 31.61 31.6645C30.6364 31.2744 29.9156 30.8529 29.4381 30.4001C28.9607 29.9472 28.4739 29.5257 27.9824 29.1356C27.4862 28.7455 27.0649 28.5482 26.7186 28.5482C26.1475 28.5482 25.6373 28.8397 25.1879 29.4181C24.7432 29.9965 24.5186 30.5794 24.5186 31.1578C24.5186 32.4088 25.5437 33.6194 27.5986 34.7942C29.6534 35.9689 32.1437 36.5563 35.0739 36.5563C38.3505 36.5563 40.9858 35.7313 42.9751 34.0812C44.9645 32.4312 45.9615 30.0279 45.9615 26.8758C45.9615 25.2213 45.676 23.764 45.1003 22.5086C44.5292 21.2531 43.7896 20.2622 42.8815 19.5403H42.8862Z" fill="white"/>
<path d="M87.1291 0H51.1568C50.6746 0 50.2861 0.354219 50.2861 0.793631V38.2064C50.2861 38.6458 50.6746 39 51.1568 39H87.1291C87.6112 39 87.9997 38.6458 87.9997 38.2064V0.793631C87.9997 0.354219 87.6112 0 87.1291 0ZM83.3189 13.3079L76.747 33.9288C76.5551 34.4714 76.1666 34.8794 75.5861 35.1574C75.0712 35.404 74.5049 35.534 73.901 35.534C73.2972 35.534 72.7355 35.413 72.2206 35.1708C71.467 34.8166 71.2002 34.292 71.1066 33.9199L69.1827 26.6651L67.2776 33.9109C67.1934 34.2741 66.9266 34.8032 66.1823 35.1619C65.6721 35.4085 65.0963 35.534 64.4691 35.534C63.8419 35.534 63.2708 35.4085 62.7606 35.1664C62.1755 34.8884 61.7963 34.4759 61.6325 33.9468L55.0232 13.3258C54.981 13.2092 54.9623 13.0523 54.9623 12.8281C54.9623 12.4066 55.1402 11.8058 55.9734 11.3261C56.5398 11.0032 57.1529 10.8418 57.7989 10.8418C59.1236 10.8418 59.5261 11.5637 59.6478 11.9941L64.4363 27.9295L66.847 18.7512C66.9687 18.2176 67.4415 17.2985 69.1921 17.2985C70.9427 17.2985 71.364 18.2221 71.5044 18.7736L73.9385 27.9519L78.7129 11.9672C78.8346 11.5502 79.2372 10.8373 80.5525 10.8373C81.1938 10.8373 81.807 10.9987 82.3687 11.3171C83.2019 11.7879 83.3798 12.3887 83.3798 12.8057C83.3798 13.0209 83.361 13.1779 83.3189 13.3034V13.3079ZM84.2176 5.87376C84.2176 6.72568 83.5249 7.41619 82.6729 7.41619H55.4257C54.5738 7.41619 53.881 6.72568 53.881 5.87376V5.00839C53.881 4.15647 54.5738 3.46597 55.4257 3.46597H82.6729C83.5249 3.46597 84.2176 4.15647 84.2176 5.00839V5.87376Z" fill="white"/>
</g>
<defs>
<clipPath id="clip0_174_298">
<rect width="88" height="39" fill="white"/>
</clipPath>
</defs>
</svg>
